<?xml version="1.0" standalone="no"?>
<!DOCTYPE svg PUBLIC "-//W3C//DTD SVG 20010904//EN"
 "http://www.w3.org/TR/2001/REC-SVG-20010904/DTD/svg10.dtd">
<svg version="1.0" xmlns="http://www.w3.org/2000/svg"
 width="700.000000pt" height="700.000000pt" viewBox="0 0 700.000000 700.000000"
 preserveAspectRatio="xMidYMid meet">
<metadata>
Created by potrace 1.14, written by Peter Selinger 2001-2017
</metadata>
<g transform="translate(0.000000,700.000000) scale(0.100000,-0.100000)"
fill="#000000" stroke="none">
<path d="M2911 6989 c-1157 -45 -1821 -240 -2240 -660 -369 -368 -564 -930
-636 -1826 -53 -671 -44 -1634 21 -2228 145 -1325 622 -1913 1736 -2144 400
-83 812 -118 1503 -128 1133 -16 1904 71 2415 273 775 307 1131 910 1244 2104
33 346 41 552 41 1120 -1 591 -9 803 -46 1168 -98 968 -357 1524 -869 1864
-369 246 -866 379 -1630 438 -367 28 -1083 37 -1539 19z m-1241 -2211 c66 -46
74 -66 80 -206 l5 -127 135 -5 c152 -6 171 -13 208 -79 39 -70 21 -159 -41
-205 -24 -18 -47 -22 -165 -26 l-137 -5 0 -412 c0 -402 0 -412 21 -440 30 -41
79 -50 160 -30 88 21 122 9 153 -55 35 -72 25 -123 -36 -180 -98 -94 -319
-102 -489 -18 -66 32 -100 71 -131 150 -16 40 -18 94 -21 518 l-3 472 -92 0
c-74 0 -98 4 -125 20 -97 60 -97 210 0 270 27 16 51 20 126 20 l92 0 0 118 c0
103 3 122 23 157 45 80 165 112 237 63z m1740 -292 c98 -21 174 -53 253 -106
l72 -48 17 45 c21 55 52 91 95 109 74 32 168 4 213 -63 l25 -37 3 -645 c2
-442 0 -658 -8 -683 -49 -170 -284 -169 -330 2 l-10 39 -38 -35 c-51 -48 -154
-108 -232 -135 -98 -34 -274 -32 -385 4 -116 38 -196 90 -286 185 -90 95 -155
213 -190 347 -31 116 -31 355 0 470 40 148 129 306 221 388 159 144 379 206
580 163z m1408 -43 c15 -10 108 -120 207 -243 99 -123 186 -225 192 -227 6 -2
89 99 185 226 194 258 215 277 300 269 109 -11 177 -121 135 -218 -8 -19 -106
-144 -216 -278 -111 -134 -201 -247 -201 -252 0 -5 82 -111 183 -237 276 -343
257 -315 257 -382 0 -48 -5 -65 -29 -98 -16 -22 -45 -47 -64 -56 -44 -21 -119
-22 -157 -2 -16 8 -114 121 -218 250 l-190 234 -170 -217 c-215 -275 -223
-282 -304 -282 -122 1 -207 130 -149 226 11 18 110 143 221 278 l201 246 -208
257 c-114 142 -215 274 -225 293 -42 81 -2 185 87 226 41 20 129 13 163 -13z
m-92 -2484 c118 -57 118 -222 0 -278 -43 -21 -44 -21 -1259 -19 l-1216 3 -28
21 c-89 66 -99 179 -21 251 12 12 34 26 48 32 16 6 454 10 1229 10 1199 1
1205 1 1247 -20z"/>
<path d="M3213 4166 c-214 -70 -336 -314 -289 -576 28 -156 116 -278 243 -338
52 -24 70 -27 163 -27 137 1 201 24 281 105 97 97 143 216 143 370 0 47 -6
110 -13 140 -33 134 -120 248 -228 302 -59 29 -77 33 -162 35 -61 2 -111 -2
-138 -11z"/>
</g>
</svg>
