<?xml version="1.0" standalone="no"?>
<!DOCTYPE svg PUBLIC "-//W3C//DTD SVG 20010904//EN"
 "http://www.w3.org/TR/2001/REC-SVG-20010904/DTD/svg10.dtd">
<svg version="1.0" xmlns="http://www.w3.org/2000/svg"
 width="700.000000pt" height="700.000000pt" viewBox="0 0 700.000000 700.000000"
 preserveAspectRatio="xMidYMid meet">
<metadata>
Created by potrace 1.14, written by Peter Selinger 2001-2017
</metadata>
<g transform="translate(0.000000,700.000000) scale(0.100000,-0.100000)"
fill="#000000" stroke="none">
<path d="M2911 6989 c-1157 -45 -1821 -240 -2240 -660 -369 -368 -564 -930
-636 -1826 -53 -671 -44 -1634 21 -2228 145 -1325 622 -1913 1736 -2144 400
-83 812 -118 1503 -128 1133 -16 1904 71 2415 273 775 307 1131 910 1244 2104
33 346 41 552 41 1120 -1 591 -9 803 -46 1168 -98 968 -357 1524 -869 1864
-369 246 -866 379 -1630 438 -367 28 -1083 37 -1539 19z m727 -1385 c243 -49
439 -242 497 -487 19 -81 19 -237 0 -312 -58 -229 -246 -423 -465 -480 -84
-22 -226 -23 -309 -1 -150 38 -310 157 -389 289 -126 209 -126 482 -1 694 49
83 162 191 245 235 140 73 272 93 422 62z m1908 -485 c35 -31 68 -108 100
-227 36 -134 45 -366 19 -509 -56 -313 -224 -585 -478 -774 -160 -119 -389
-213 -524 -214 -69 0 -73 2 -108 35 -67 65 -68 159 -1 226 32 32 52 40 186 69
262 58 477 241 580 492 81 201 89 422 23 641 -48 159 -39 223 39 273 46 28
127 22 164 -12z m-1568 -1344 c166 -39 301 -164 355 -328 18 -54 21 -94 25
-330 5 -315 -8 -511 -43 -656 -92 -379 -356 -715 -704 -894 -186 -97 -362
-144 -571 -154 -103 -5 -121 -3 -175 17 -75 29 -155 102 -186 173 l-24 52 -3
810 c-2 711 -1 819 13 882 46 207 201 369 406 422 67 18 111 20 459 20 306 1
398 -2 448 -14z m-1557 -223 c14 -6 -1 -56 -106 -357 -67 -192 -224 -646 -350
-1007 -206 -595 -231 -661 -263 -694 -87 -89 -229 -91 -295 -3 -48 65 -54 45
267 970 163 470 306 872 317 894 42 82 139 162 232 190 44 14 171 18 198 7z"/>
</g>
</svg>
