<svg width="100" height="100" viewBox="0 0 100 100" fill="none" xmlns="http://www.w3.org/2000/svg">
<path d="M0 50C0 8.825 8.825 0 50 0C91.175 0 100 8.825 100 50C100 91.175 91.175 100 50 100C8.825 100 0 91.175 0 50Z" fill="#C00000"/>
<path d="M87.2841 75V73.9875L83.54 68.5084H85.8761L85.9974 69.4893H87.1734L87.1101 67.3219H81.6468V68.3027L85.4068 73.8188H82.7332L82.6066 72.8379H81.4359L81.5308 75H87.2841Z" fill="white"/>
<path d="M76.62 75.9809V75H71.8212V75.9809H76.62ZM66.7468 75.9809V75H61.948V75.9809H66.7468ZM56.8737 75.9809V75H52.0749V75.9809H56.8737ZM47.0006 75.9809V75H42.2017V75.9809H47.0006ZM37.1274 75.9809V75H32.3286V75.9809H37.1274ZM27.2543 75.9809V75H22.4555V75.9809H27.2543ZM17.3811 75.9809V75H12.5823V75.9809H17.3811Z" fill="#C00000"/>
<path d="M28.6245 48.3509C29.0085 48.3509 29.3514 48.5429 29.6531 48.9269C29.9822 49.2834 30.1468 49.7634 30.1468 50.3669C30.1468 51.1074 29.7354 51.7383 28.9125 52.2594C28.1171 52.7531 27.2119 53 26.1971 53C24.4965 53 23.0565 52.6434 21.8771 51.9303C20.7251 51.1897 20.1491 49.64 20.1491 47.2811V35.9257H18.2565C17.5982 35.9257 17.0496 35.7063 16.6108 35.2674C16.1719 34.8286 15.9525 34.28 15.9525 33.6217C15.9525 32.9909 16.1719 32.4697 16.6108 32.0583C17.0496 31.6194 17.5982 31.4 18.2565 31.4H20.1491V28.7669C20.1491 28.0537 20.3822 27.464 20.8485 26.9977C21.3422 26.504 21.9456 26.2571 22.6588 26.2571C23.3445 26.2571 23.9205 26.504 24.3868 26.9977C24.8531 27.464 25.0862 28.0537 25.0862 28.7669V31.4H28.0074C28.6656 31.4 29.2142 31.6194 29.6531 32.0583C30.0919 32.4971 30.3114 33.0457 30.3114 33.704C30.3114 34.3349 30.0919 34.8697 29.6531 35.3086C29.2142 35.72 28.6656 35.9257 28.0074 35.9257H25.0862V47.0754C25.0862 47.6514 25.2371 48.0766 25.5388 48.3509C25.8405 48.5977 26.2519 48.7211 26.7731 48.7211C26.9925 48.7211 27.2942 48.6663 27.6782 48.5566C28.0074 48.4194 28.3228 48.3509 28.6245 48.3509ZM55.9508 30.5771C56.6639 30.5771 57.2536 30.8103 57.7199 31.2766C58.1862 31.7429 58.4193 32.3463 58.4193 33.0869V50.4903C58.4193 51.2034 58.1862 51.8069 57.7199 52.3006C57.2536 52.7669 56.6639 53 55.9508 53C55.2376 53 54.6479 52.7669 54.1816 52.3006C53.7428 51.8343 53.5096 51.2446 53.4822 50.5314C52.7965 51.3269 51.8639 52.0126 50.6845 52.5886C49.5325 53.1371 48.3119 53.4114 47.0228 53.4114C45.1302 53.4114 43.4159 52.9314 41.8799 51.9714C40.3439 50.984 39.1233 49.6263 38.2182 47.8983C37.3405 46.1703 36.9016 44.2091 36.9016 42.0149C36.9016 39.8206 37.3405 37.8594 38.2182 36.1314C39.0959 34.376 40.289 33.0183 41.7976 32.0583C43.3336 31.0709 45.0205 30.5771 46.8582 30.5771C48.1748 30.5771 49.409 30.824 50.561 31.3177C51.713 31.784 52.6868 32.3874 53.4822 33.128V33.0869C53.4822 32.3737 53.7153 31.784 54.1816 31.3177C54.6479 30.824 55.2376 30.5771 55.9508 30.5771ZM47.6399 48.8857C49.4228 48.8857 50.8765 48.2411 52.001 46.952C53.1256 45.6354 53.6879 43.9897 53.6879 42.0149C53.6879 40.04 53.1256 38.3943 52.001 37.0777C50.8765 35.7611 49.4228 35.1029 47.6399 35.1029C45.8845 35.1029 44.4445 35.7611 43.3199 37.0777C42.1953 38.3943 41.633 40.04 41.633 42.0149C41.633 43.9897 42.1816 45.6354 43.2788 46.952C44.4033 48.2411 45.857 48.8857 47.6399 48.8857ZM83.2715 49.0914C83.6281 49.5303 83.8064 50.024 83.8064 50.5726C83.8064 51.2583 83.5458 51.848 83.0247 52.3417C82.5035 52.8354 81.9275 53.0823 81.2967 53.0823C80.5012 53.0823 79.8292 52.7257 79.2807 52.0126L74.3435 45.8823L69.5298 52.0126C69.283 52.3417 68.9812 52.6023 68.6247 52.7943C68.2955 52.9589 67.939 53.0411 67.555 53.0411C66.979 53.0411 66.4304 52.8217 65.9092 52.3829C65.3881 51.944 65.1275 51.4366 65.1275 50.8606C65.1275 50.312 65.3332 49.7909 65.7447 49.2971L71.4635 42.3029L65.539 34.9383C65.1824 34.4994 65.0041 34.0057 65.0041 33.4571C65.0041 32.7714 65.251 32.1954 65.7447 31.7291C66.2658 31.2354 66.8555 30.9886 67.5138 30.9886C68.3092 30.9886 68.9812 31.3314 69.5298 32.0171L74.5904 38.312L79.2807 32.0994C79.8018 31.3589 80.4601 30.9886 81.2555 30.9886C81.9138 30.9886 82.4624 31.2217 82.9012 31.688C83.3675 32.1269 83.6007 32.6343 83.6007 33.2103C83.6007 33.8137 83.4087 34.3486 83.0247 34.8149L77.347 41.7269L83.2715 49.0914ZM11.3331 75V74.0771L12.1505 73.9189V68.4082L11.3331 68.25V67.3219H14.4286L16.5222 72.6744H16.5538L18.5788 67.3219H21.6796V68.25L20.8569 68.4082V73.9189L21.6796 74.0771V75H18.4997V74.0771L19.3593 73.9189V72.4477L19.3856 68.983L19.354 68.9777L17.06 74.8945H15.8946L13.5479 69.0252L13.5163 69.0305L13.6059 72.2895V73.9189L14.513 74.0771V75H11.3331ZM25.7467 75V74.0771L26.2951 73.998L28.7367 67.3219H30.3135L32.7392 73.998L33.2877 74.0771V75H30.6721V74.0771L31.2047 73.9822L30.8672 72.9275H28.1672L27.8297 73.9822L28.3623 74.0771V75H25.7467ZM28.531 71.7938H30.5033L29.6068 69.1623L29.533 68.9303H29.5014L29.4223 69.1781L28.531 71.7938ZM38.8788 75V74.0771L39.7014 73.9189V68.5084H38.304L38.2196 69.426H37.0542V67.3219H43.9044V69.426H42.7337L42.6493 68.5084H41.2413V73.9189L42.0692 74.0771V75H38.8788ZM50.3656 75V74.0771L51.1883 73.9189V68.5084H49.7908L49.7064 69.426H48.541V67.3219H55.3912V69.426H54.2205L54.1361 68.5084H52.7281V73.9189L53.556 74.0771V75H50.3656ZM60.0331 75V74.0771L60.8505 73.9189V68.4082L60.0331 68.25V67.3219H65.9921V69.3943H64.8108L64.7423 68.5084H62.3903V70.4385H64.9901V71.625H62.3903V73.8188H64.8688L64.9374 72.9012H66.1081V75H60.0331ZM71.0347 75V74.0771L71.8521 73.9189V68.4082L71.0347 68.25V67.3219H74.6734C75.5558 67.3219 76.2484 67.5258 76.7511 67.9336C77.2539 68.3379 77.5052 68.8969 77.5052 69.6105C77.5052 70.0641 77.3892 70.4701 77.1572 70.8287C76.9287 71.1873 76.614 71.4668 76.2133 71.6672L77.1888 73.9242L77.8427 74.0771V75H75.9759L74.7947 71.9678H73.392V73.9189L74.2146 74.0771V75H71.0347ZM73.392 70.7813H74.647C75.5295 70.7813 75.9707 70.4139 75.9707 69.6791C75.9707 69.324 75.8617 69.041 75.6437 68.8301C75.4258 68.6156 75.1023 68.5084 74.6734 68.5084H73.392V70.7813Z" fill="white"/>
</svg>
