<svg width="375" height="375" viewBox="0 0 375 375" fill="none" xmlns="http://www.w3.org/2000/svg">
<path d="M0 187.5C0 33.0938 33.0938 0 187.5 0C341.906 0 375 33.0938 375 187.5C375 341.906 341.906 375 187.5 375C33.0938 375 0 341.906 0 187.5Z" fill="#C00000"/>
<mask id="path-2-outside-1_629_109" maskUnits="userSpaceOnUse" x="216.696" y="95.1465" width="113.512" height="107.392" fill="black">
<rect fill="white" x="216.696" y="95.1465" width="113.512" height="107.392"/>
<path fill-rule="evenodd" clip-rule="evenodd" d="M244.227 185.213C244.227 188.484 247.027 191.082 250.246 190.501C260.318 188.685 270.083 184.361 278.573 177.431C300.579 159.468 307.147 129.601 296.568 104.709C295.329 101.794 291.645 101.076 289.191 103.079V103.079C287.408 104.535 286.853 107.006 287.677 109.156C295.979 130.82 291.229 154.98 273.999 169.045C266.878 174.858 258.493 178.237 249.725 179.32C246.689 179.695 244.227 182.154 244.227 185.213V185.213Z"/>
</mask>
<path fill-rule="evenodd" clip-rule="evenodd" d="M244.227 185.213C244.227 188.484 247.027 191.082 250.246 190.501C260.318 188.685 270.083 184.361 278.573 177.431C300.579 159.468 307.147 129.601 296.568 104.709C295.329 101.794 291.645 101.076 289.191 103.079V103.079C287.408 104.535 286.853 107.006 287.677 109.156C295.979 130.82 291.229 154.98 273.999 169.045C266.878 174.858 258.493 178.237 249.725 179.32C246.689 179.695 244.227 182.154 244.227 185.213V185.213Z" fill="white"/>
<path d="M249.725 179.32L250.093 182.297L249.725 179.32ZM250.246 190.501L250.779 193.453L250.246 190.501ZM250.779 193.453C261.338 191.549 271.576 187.015 280.47 179.755L276.676 175.107C268.59 181.707 259.297 185.821 249.714 187.549L250.779 193.453ZM280.47 179.755C303.538 160.925 310.416 129.623 299.329 103.535L293.807 105.882C303.878 129.58 297.621 158.01 276.676 175.107L280.47 179.755ZM284.876 110.229C292.795 130.895 288.165 153.609 272.102 166.721L275.896 171.369C294.294 156.352 299.163 130.746 290.478 108.082L284.876 110.229ZM272.102 166.721C265.443 172.156 257.597 175.325 249.358 176.342L250.093 182.297C259.39 181.149 268.312 177.559 275.896 171.369L272.102 166.721ZM287.294 100.755C284.422 103.099 283.629 106.976 284.876 110.229L290.478 108.082C290.077 107.035 290.393 105.97 291.088 105.403L287.294 100.755ZM299.329 103.535C297.223 98.5811 291.124 97.6283 287.294 100.755L291.088 105.403C292.166 104.523 293.434 105.006 293.807 105.882L299.329 103.535ZM249.358 176.342C245.021 176.878 241.227 180.443 241.227 185.213L247.227 185.213C247.227 183.864 248.357 182.511 250.093 182.297L249.358 176.342ZM249.714 187.549C248.536 187.761 247.227 186.825 247.227 185.213L241.227 185.213C241.227 190.144 245.517 194.402 250.779 193.453L249.714 187.549Z" fill="white" mask="url(#path-2-outside-1_629_109)"/>
<mask id="path-4-inside-2_629_109" fill="white">
<path fill-rule="evenodd" clip-rule="evenodd" d="M244.227 185.213C244.227 188.484 247.027 191.082 250.246 190.501C260.318 188.685 270.083 184.361 278.573 177.431C300.579 159.468 307.147 129.601 296.568 104.709C295.329 101.794 291.645 101.076 289.191 103.079V103.079C287.408 104.535 286.853 107.006 287.677 109.156C295.979 130.82 291.229 154.98 273.999 169.045C266.878 174.858 258.493 178.237 249.725 179.32C246.689 179.695 244.227 182.154 244.227 185.213V185.213Z"/>
</mask>
<path fill-rule="evenodd" clip-rule="evenodd" d="M244.227 185.213C244.227 188.484 247.027 191.082 250.246 190.501C260.318 188.685 270.083 184.361 278.573 177.431C300.579 159.468 307.147 129.601 296.568 104.709C295.329 101.794 291.645 101.076 289.191 103.079V103.079C287.408 104.535 286.853 107.006 287.677 109.156C295.979 130.82 291.229 154.98 273.999 169.045C266.878 174.858 258.493 178.237 249.725 179.32C246.689 179.695 244.227 182.154 244.227 185.213V185.213Z" fill="white"/>
<path d="M249.725 179.32L250.093 182.297L249.725 179.32ZM250.246 190.501L250.779 193.453L250.246 190.501ZM250.779 193.453C261.338 191.549 271.576 187.015 280.47 179.755L276.676 175.107C268.59 181.707 259.297 185.821 249.714 187.549L250.779 193.453ZM280.47 179.755C303.538 160.925 310.416 129.623 299.329 103.535L293.807 105.882C303.878 129.58 297.621 158.01 276.676 175.107L280.47 179.755ZM284.876 110.229C292.795 130.895 288.165 153.609 272.102 166.721L275.896 171.369C294.294 156.352 299.163 130.746 290.478 108.082L284.876 110.229ZM272.102 166.721C265.443 172.156 257.597 175.325 249.358 176.342L250.093 182.297C259.39 181.149 268.312 177.559 275.896 171.369L272.102 166.721ZM287.294 100.755C284.422 103.099 283.629 106.976 284.876 110.229L290.478 108.082C290.077 107.035 290.393 105.97 291.088 105.403L287.294 100.755ZM299.329 103.535C297.223 98.5811 291.124 97.6283 287.294 100.755L291.088 105.403C292.166 104.523 293.434 105.006 293.807 105.882L299.329 103.535ZM249.358 176.342C245.021 176.878 241.227 180.443 241.227 185.213L247.227 185.213C247.227 183.864 248.357 182.511 250.093 182.297L249.358 176.342ZM249.714 187.549C248.536 187.761 247.227 186.825 247.227 185.213L241.227 185.213C241.227 190.144 245.517 194.402 250.779 193.453L249.714 187.549Z" fill="white" mask="url(#path-4-inside-2_629_109)"/>
<path d="M105.386 197.987C108.646 188.596 119.194 182.551 128.945 184.486L130.633 184.821L93.7395 291.101C91.9536 296.246 86.1754 299.558 80.8336 298.498V298.498C75.4918 297.438 72.6092 292.408 74.3951 287.263L105.386 197.987Z" fill="white"/>
<ellipse cx="188.257" cy="109.208" rx="34.2567" ry="35.2083" fill="white"/>
<path d="M142 202C142 185.431 155.431 172 172 172H207.208C221.646 172 233.351 183.705 233.351 198.144V225.535C233.351 266.391 200.231 299.511 159.375 299.511V299.511C149.779 299.511 142 291.732 142 282.136V202Z" fill="white"/>
</svg>
