<svg width="375" height="375" viewBox="0 0 375 375" fill="none" xmlns="http://www.w3.org/2000/svg">
<path d="M0 187.5C0 33.0938 33.0938 0 187.5 0C341.906 0 375 33.0938 375 187.5C375 341.906 341.906 375 187.5 375C33.0938 375 0 341.906 0 187.5Z" fill="#C00000"/>
<path d="M107.27 200.566C108.71 200.566 109.996 201.286 111.128 202.726C112.362 204.063 112.979 205.863 112.979 208.126C112.979 210.903 111.436 213.269 108.35 215.223C105.368 217.074 101.973 218 98.1676 218C91.7905 218 86.3905 216.663 81.9676 213.989C77.6476 211.211 75.4876 205.4 75.4876 196.554V153.971H68.3905C65.9219 153.971 63.8647 153.149 62.219 151.503C60.5733 149.857 59.7505 147.8 59.7505 145.331C59.7505 142.966 60.5733 141.011 62.219 139.469C63.8647 137.823 65.9219 137 68.3905 137H75.4876V127.126C75.4876 124.451 76.3619 122.24 78.1105 120.491C79.9619 118.64 82.2247 117.714 84.899 117.714C87.4705 117.714 89.6305 118.64 91.379 120.491C93.1276 122.24 94.0019 124.451 94.0019 127.126V137H104.956C107.425 137 109.482 137.823 111.128 139.469C112.773 141.114 113.596 143.171 113.596 145.64C113.596 148.006 112.773 150.011 111.128 151.657C109.482 153.2 107.425 153.971 104.956 153.971H94.0019V195.783C94.0019 197.943 94.5676 199.537 95.699 200.566C96.8305 201.491 98.3733 201.954 100.328 201.954C101.15 201.954 102.282 201.749 103.722 201.337C104.956 200.823 106.139 200.566 107.27 200.566ZM209.744 133.914C212.418 133.914 214.63 134.789 216.378 136.537C218.127 138.286 219.001 140.549 219.001 143.326V208.589C219.001 211.263 218.127 213.526 216.378 215.377C214.63 217.126 212.418 218 209.744 218C207.07 218 204.858 217.126 203.11 215.377C201.464 213.629 200.59 211.417 200.487 208.743C197.915 211.726 194.418 214.297 189.995 216.457C185.675 218.514 181.098 219.543 176.264 219.543C169.167 219.543 162.738 217.743 156.978 214.143C151.218 210.44 146.641 205.349 143.247 198.869C139.955 192.389 138.31 185.034 138.31 176.806C138.31 168.577 139.955 161.223 143.247 154.743C146.538 148.16 151.012 143.069 156.67 139.469C162.43 135.766 168.755 133.914 175.647 133.914C180.584 133.914 185.212 134.84 189.532 136.691C193.852 138.44 197.504 140.703 200.487 143.48V143.326C200.487 140.651 201.361 138.44 203.11 136.691C204.858 134.84 207.07 133.914 209.744 133.914ZM178.578 202.571C185.264 202.571 190.715 200.154 194.932 195.32C199.15 190.383 201.258 184.211 201.258 176.806C201.258 169.4 199.15 163.229 194.932 158.291C190.715 153.354 185.264 150.886 178.578 150.886C171.995 150.886 166.595 153.354 162.378 158.291C158.161 163.229 156.052 169.4 156.052 176.806C156.052 184.211 158.11 190.383 162.224 195.32C166.441 200.154 171.892 202.571 178.578 202.571ZM312.197 203.343C313.534 204.989 314.203 206.84 314.203 208.897C314.203 211.469 313.225 213.68 311.271 215.531C309.317 217.383 307.157 218.309 304.791 218.309C301.808 218.309 299.288 216.971 297.231 214.297L278.717 191.309L260.665 214.297C259.74 215.531 258.608 216.509 257.271 217.229C256.037 217.846 254.7 218.154 253.26 218.154C251.1 218.154 249.043 217.331 247.088 215.686C245.134 214.04 244.157 212.137 244.157 209.977C244.157 207.92 244.928 205.966 246.471 204.114L267.917 177.886L245.7 150.269C244.363 148.623 243.694 146.771 243.694 144.714C243.694 142.143 244.62 139.983 246.471 138.234C248.425 136.383 250.637 135.457 253.105 135.457C256.088 135.457 258.608 136.743 260.665 139.314L279.643 162.92L297.231 139.623C299.185 136.846 301.654 135.457 304.637 135.457C307.105 135.457 309.163 136.331 310.808 138.08C312.557 139.726 313.431 141.629 313.431 143.789C313.431 146.051 312.711 148.057 311.271 149.806L289.98 175.726L312.197 203.343Z" fill="white"/>
<line x1="123.5" y1="277.5" x2="249.5" y2="277.5" stroke="white" stroke-width="17" stroke-linecap="round"/>
</svg>
