<svg width="375" height="375" viewBox="0 0 375 375" fill="none" xmlns="http://www.w3.org/2000/svg">
<path d="M0 187.5C0 33.0938 33.0938 0 187.5 0C341.906 0 375 33.0938 375 187.5C375 341.906 341.906 375 187.5 375C33.0938 375 0 341.906 0 187.5Z" fill="#C00000"/>
<path d="M327.316 283V279.203L313.275 258.656H322.035L322.49 262.335H326.9L326.663 254.207H306.176V257.885L320.275 278.57H310.249L309.775 274.892H305.385L305.741 283H327.316Z" fill="white"/>
<path d="M287.325 286.678V283H269.329V286.678H287.325ZM250.301 286.678V283H232.305V286.678H250.301ZM213.276 286.678V283H195.281V286.678H213.276ZM176.252 286.678V283H158.257V286.678H176.252ZM139.228 286.678V283H121.232V286.678H139.228ZM102.204 286.678V283H84.2079V286.678H102.204ZM65.1793 286.678V283H47.1837V286.678H65.1793Z" fill="#C00000"/>
<path d="M107.342 181.566C108.782 181.566 110.068 182.286 111.199 183.726C112.433 185.063 113.05 186.863 113.05 189.126C113.05 191.903 111.508 194.269 108.422 196.223C105.439 198.074 102.045 199 98.239 199C91.8619 199 86.4619 197.663 82.039 194.989C77.719 192.211 75.559 186.4 75.559 177.554V134.971H68.4619C65.9933 134.971 63.9362 134.149 62.2905 132.503C60.6448 130.857 59.8219 128.8 59.8219 126.331C59.8219 123.966 60.6448 122.011 62.2905 120.469C63.9362 118.823 65.9933 118 68.4619 118H75.559V108.126C75.559 105.451 76.4333 103.24 78.1819 101.491C80.0333 99.64 82.2962 98.7143 84.9705 98.7143C87.5419 98.7143 89.7019 99.64 91.4505 101.491C93.199 103.24 94.0733 105.451 94.0733 108.126V118H105.028C107.496 118 109.553 118.823 111.199 120.469C112.845 122.114 113.668 124.171 113.668 126.64C113.668 129.006 112.845 131.011 111.199 132.657C109.553 134.2 107.496 134.971 105.028 134.971H94.0733V176.783C94.0733 178.943 94.639 180.537 95.7705 181.566C96.9019 182.491 98.4448 182.954 100.399 182.954C101.222 182.954 102.353 182.749 103.793 182.337C105.028 181.823 106.21 181.566 107.342 181.566ZM209.815 114.914C212.49 114.914 214.701 115.789 216.45 117.537C218.198 119.286 219.072 121.549 219.072 124.326V189.589C219.072 192.263 218.198 194.526 216.45 196.377C214.701 198.126 212.49 199 209.815 199C207.141 199 204.93 198.126 203.181 196.377C201.535 194.629 200.661 192.417 200.558 189.743C197.987 192.726 194.49 195.297 190.067 197.457C185.747 199.514 181.17 200.543 176.335 200.543C169.238 200.543 162.81 198.743 157.05 195.143C151.29 191.44 146.712 186.349 143.318 179.869C140.027 173.389 138.381 166.034 138.381 157.806C138.381 149.577 140.027 142.223 143.318 135.743C146.61 129.16 151.084 124.069 156.741 120.469C162.501 116.766 168.827 114.914 175.718 114.914C180.655 114.914 185.284 115.84 189.604 117.691C193.924 119.44 197.575 121.703 200.558 124.48V124.326C200.558 121.651 201.432 119.44 203.181 117.691C204.93 115.84 207.141 114.914 209.815 114.914ZM178.65 183.571C185.335 183.571 190.787 181.154 195.004 176.32C199.221 171.383 201.33 165.211 201.33 157.806C201.33 150.4 199.221 144.229 195.004 139.291C190.787 134.354 185.335 131.886 178.65 131.886C172.067 131.886 166.667 134.354 162.45 139.291C158.232 144.229 156.124 150.4 156.124 157.806C156.124 165.211 158.181 171.383 162.295 176.32C166.512 181.154 171.964 183.571 178.65 183.571ZM312.268 184.343C313.605 185.989 314.274 187.84 314.274 189.897C314.274 192.469 313.297 194.68 311.343 196.531C309.388 198.383 307.228 199.309 304.863 199.309C301.88 199.309 299.36 197.971 297.303 195.297L278.788 172.309L260.737 195.297C259.811 196.531 258.68 197.509 257.343 198.229C256.108 198.846 254.771 199.154 253.331 199.154C251.171 199.154 249.114 198.331 247.16 196.686C245.205 195.04 244.228 193.137 244.228 190.977C244.228 188.92 245 186.966 246.543 185.114L267.988 158.886L245.771 131.269C244.434 129.623 243.765 127.771 243.765 125.714C243.765 123.143 244.691 120.983 246.543 119.234C248.497 117.383 250.708 116.457 253.177 116.457C256.16 116.457 258.68 117.743 260.737 120.314L279.714 143.92L297.303 120.623C299.257 117.846 301.725 116.457 304.708 116.457C307.177 116.457 309.234 117.331 310.88 119.08C312.628 120.726 313.503 122.629 313.503 124.789C313.503 127.051 312.783 129.057 311.343 130.806L290.051 156.726L312.268 184.343ZM42.4991 283V279.539L45.5643 278.946V258.281L42.4991 257.688V254.207H54.1073L61.9581 274.279H62.0767L69.6705 254.207H81.2984V257.688L78.2135 258.281V278.946L81.2984 279.539V283H69.3739V279.539L72.5973 278.946V273.429L72.6961 260.436L72.5775 260.417L63.9752 282.604H59.6048L50.8048 260.594L50.6861 260.614L51.0223 272.835V278.946L54.4237 279.539V283H42.4991ZM96.55 283V279.539L98.6066 279.243L107.763 254.207H113.675L122.772 279.243L124.829 279.539V283H115.02V279.539L117.018 279.183L115.752 275.228H105.627L104.361 279.183L106.359 279.539V283H96.55ZM106.991 270.977H114.387L111.026 261.109L110.749 260.239H110.63L110.333 261.168L106.991 270.977ZM145.795 283V279.539L148.88 278.946V258.656H143.64L143.324 262.097H138.953V254.207H164.641V262.097H160.251L159.935 258.656H154.655V278.946L157.76 279.539V283H145.795ZM188.871 283V279.539L191.956 278.946V258.656H186.715L186.399 262.097H182.029V254.207H207.717V262.097H203.327L203.01 258.656H197.73V278.946L200.835 279.539V283H188.871ZM225.124 283V279.539L228.189 278.946V258.281L225.124 257.688V254.207H247.47V261.979H243.041L242.783 258.656H233.964V265.894H243.713V270.344H233.964V278.57H243.258L243.515 275.129H247.905V283H225.124ZM266.38 283V279.539L269.445 278.946V258.281L266.38 257.688V254.207H280.025C283.334 254.207 285.932 254.972 287.817 256.501C289.702 258.017 290.645 260.113 290.645 262.79C290.645 264.49 290.21 266.013 289.339 267.358C288.483 268.702 287.303 269.75 285.8 270.502L289.458 278.966L291.91 279.539V283H284.91L280.48 271.629H275.22V278.946L278.305 279.539V283H266.38ZM275.22 267.18H279.926C283.235 267.18 284.89 265.802 284.89 263.047C284.89 261.715 284.481 260.654 283.664 259.863C282.847 259.059 281.634 258.656 280.025 258.656H275.22V267.18Z" fill="white"/>
</svg>
